<svg width="372" height="373" xmlns="http://www.w3.org/2000/svg" xmlns:xlink="http://www.w3.org/1999/xlink" overflow="hidden"><g transform="translate(-454 -163)"><path d="M454 349.5C454 247.051 537.275 164 640 164 742.725 164 826 247.051 826 349.5 826 451.949 742.725 535 640 535 537.275 535 454 451.949 454 349.5Z" fill="#F8CBAD" fill-rule="evenodd"/><path d="M766 327 781.882 327 798 360 781.882 393 766 393 782.118 360Z" fill="#FFFFFF" fill-rule="evenodd"/><path d="M514 393 498.118 393 482 360 498.118 327 514 327 497.882 360Z" fill="#FFFFFF" fill-rule="evenodd"/><path d="M673 476 673 491.882 640 508 607 491.882 607 476 640 492.118Z" fill="#FFFFFF" fill-rule="evenodd"/><path d="M607 223 607 207.118 640 191 673 207.118 673 223 640 206.882Z" fill="#FFFFFF" fill-rule="evenodd"/></g></svg>