<svg width="67" height="67" xmlns="http://www.w3.org/2000/svg" xmlns:xlink="http://www.w3.org/1999/xlink" overflow="hidden"><defs><clipPath id="clip0"><rect x="563" y="330" width="67" height="67"/></clipPath></defs><g clip-path="url(#clip0)" transform="translate(-563 -330)"><path d="M67.1763 0C66.9721 0 66.6658 0 66.4616 0.102047L1.53134 21.7455C0.612598 22.0518 0 22.8686 0 23.7874 0 24.7061 0.612598 25.5229 1.53134 25.8292L32.363 36.9572 43.491 67.7889C43.7973 68.7077 44.6141 69.3202 45.5329 69.3202 46.4517 69.3202 47.2685 68.7077 47.5747 67.7889L69.2182 2.75643C69.4224 2.04178 69.3202 1.32724 68.9119 0.816693 68.6056 0.408399 67.9931 0 67.1763 0L67.1763 0Z" fill="#F4B183" fill-rule="evenodd" transform="matrix(-0.707107 0.707107 0.707107 0.707107 612.213 314.666)"/></g></svg>